<svg width="80" height="74" viewBox="0 0 80 74" fill="none" xmlns="http://www.w3.org/2000/svg">
<path d="M77.788 13.42L53.788 1.42C53.2323 1.14191 52.6194 0.997131 51.998 0.997131C51.3766 0.997131 50.7637 1.14191 50.208 1.42L28 12.528L5.788 1.42C5.17801 1.11518 4.50023 0.971375 3.81903 1.00223C3.13782 1.03308 2.47581 1.23757 1.89588 1.59627C1.31594 1.95497 0.837336 2.45598 0.505516 3.0517C0.173697 3.64743 -0.000317399 4.31809 4.34605e-07 5V57C4.34605e-07 58.516 0.856 59.9 2.212 60.58L26.212 72.58C26.7677 72.8581 27.3806 73.0029 28.002 73.0029C28.6234 73.0029 29.2363 72.8581 29.792 72.58L52 61.472L74.212 72.576C74.8203 72.8837 75.4975 73.0295 76.1785 72.9994C76.8595 72.9693 77.5213 72.7642 78.1 72.404C79.28 71.672 80 70.388 80 69V17C80 15.484 79.144 14.1 77.788 13.42ZM32 19.472L48 11.472V54.528L32 62.528V19.472ZM8 11.472L24 19.472V62.528L8 54.528V11.472ZM72 62.528L56 54.528V11.472L72 19.472V62.528Z" fill="white"/>
</svg>
